<svg xmlns="http://www.w3.org/2000/svg" xmlns:xlink="http://www.w3.org/1999/xlink" width="500" zoomAndPan="magnify" viewBox="0 0 375 374.999991" height="500" preserveAspectRatio="xMidYMid meet" version="1.0"><defs><g/></defs><g fill="#5ce1e6" fill-opacity="1"><g transform="translate(77.431984, 215.999986)"><g><path d="M 15.578125 0 L 7.609375 0 L 7.609375 -60.484375 L 15.578125 -60.484375 Z M 15.578125 0 "/></g></g></g><g fill="#8bc1ec" fill-opacity="1"><g transform="translate(100.576514, 215.999986)"><g><path d="M 53.5 0 L 45.484375 0 L 15.03125 -46.609375 L 15.03125 0 L 7.015625 0 L 7.015625 -60.484375 L 15.03125 -60.484375 L 45.578125 -13.671875 L 45.578125 -60.484375 L 53.5 -60.484375 Z M 53.5 0 "/></g></g></g><g fill="#8bc1ec" fill-opacity="1"><g transform="translate(161.967265, 215.999986)"><g><path d="M 40.421875 -15.78125 L 15.078125 -15.78125 L 9.390625 0 L 1.15625 0 L 24.265625 -60.484375 L 31.234375 -60.484375 L 54.375 0 L 46.1875 0 Z M 17.484375 -22.34375 L 38.046875 -22.34375 L 27.75 -50.640625 Z M 17.484375 -22.34375 "/></g></g></g><g fill="#5ce1e6" fill-opacity="1"><g transform="translate(217.471038, 215.999986)"><g><path d="M 26.75 -37.3125 L 41.25 -60.484375 L 50.640625 -60.484375 L 31.53125 -30.484375 L 51.09375 0 L 41.625 0 L 26.75 -23.59375 L 11.796875 0 L 2.375 0 L 21.96875 -30.484375 L 2.828125 -60.484375 L 12.171875 -60.484375 Z M 26.75 -37.3125 "/></g></g></g><g fill="#8bc1ec" fill-opacity="1"><g transform="translate(270.814784, 215.999986)"><g><path d="M 15.578125 0 L 7.609375 0 L 7.609375 -60.484375 L 15.578125 -60.484375 Z M 15.578125 0 "/></g></g></g><g fill="#8bc1ec" fill-opacity="1"><g transform="translate(293.950524, 215.999986)"><g><path d="M 24.84375 -26.953125 C 18 -28.921875 13.019531 -31.335938 9.90625 -34.203125 C 6.789062 -37.078125 5.234375 -40.617188 5.234375 -44.828125 C 5.234375 -49.585938 7.132812 -53.523438 10.9375 -56.640625 C 14.75 -59.753906 19.703125 -61.3125 25.796875 -61.3125 C 29.953125 -61.3125 33.65625 -60.507812 36.90625 -58.90625 C 40.164062 -57.300781 42.6875 -55.082031 44.46875 -52.25 C 46.257812 -49.425781 47.15625 -46.34375 47.15625 -43 L 39.125 -43 C 39.125 -46.65625 37.960938 -49.523438 35.640625 -51.609375 C 33.316406 -53.703125 30.035156 -54.75 25.796875 -54.75 C 21.867188 -54.75 18.800781 -53.882812 16.59375 -52.15625 C 14.394531 -50.425781 13.296875 -48.023438 13.296875 -44.953125 C 13.296875 -42.484375 14.335938 -40.394531 16.421875 -38.6875 C 18.515625 -36.988281 22.070312 -35.429688 27.09375 -34.015625 C 32.125 -32.609375 36.054688 -31.050781 38.890625 -29.34375 C 41.734375 -27.644531 43.84375 -25.660156 45.21875 -23.390625 C 46.59375 -21.117188 47.28125 -18.445312 47.28125 -15.375 C 47.28125 -10.46875 45.367188 -6.539062 41.546875 -3.59375 C 37.722656 -0.644531 32.613281 0.828125 26.21875 0.828125 C 22.0625 0.828125 18.179688 0.03125 14.578125 -1.5625 C 10.984375 -3.15625 8.207031 -5.332031 6.25 -8.09375 C 4.300781 -10.863281 3.328125 -14.007812 3.328125 -17.53125 L 11.34375 -17.53125 C 11.34375 -13.875 12.691406 -10.984375 15.390625 -8.859375 C 18.085938 -6.742188 21.695312 -5.6875 26.21875 -5.6875 C 30.425781 -5.6875 33.648438 -6.546875 35.890625 -8.265625 C 38.128906 -9.984375 39.25 -12.320312 39.25 -15.28125 C 39.25 -18.25 38.210938 -20.539062 36.140625 -22.15625 C 34.066406 -23.78125 30.300781 -25.378906 24.84375 -26.953125 Z M 24.84375 -26.953125 "/></g></g></g><g fill="#365b6d" fill-opacity="1"><g transform="translate(8.699538, 212.484324)"><g><path d="M 71.640625 -87.828125 L 76.28125 -65.75 L 75.78125 -65.5 C 72.601562 -70.175781 69.71875 -74.019531 67.125 -77.03125 C 64.53125 -80.039062 61.582031 -82.257812 58.28125 -83.6875 C 54.976562 -85.113281 50.609375 -85.828125 45.171875 -85.828125 L 28.609375 -85.828125 L 28.609375 -43.65625 L 40.28125 -43.65625 C 45.457031 -43.65625 49.65625 -44.09375 52.875 -44.96875 C 56.101562 -45.851562 58.632812 -47.382812 60.46875 -49.5625 C 62.3125 -51.738281 63.734375 -54.75 64.734375 -58.59375 L 64.734375 -26.84375 C 63.734375 -30.695312 62.3125 -33.6875 60.46875 -35.8125 C 58.632812 -37.945312 56.101562 -39.453125 52.875 -40.328125 C 49.65625 -41.210938 45.457031 -41.65625 40.28125 -41.65625 L 28.609375 -41.65625 L 28.609375 -7.15625 C 28.609375 -4.894531 29.546875 -3.320312 31.421875 -2.4375 C 33.304688 -1.5625 35.546875 -0.957031 38.140625 -0.625 L 38.140625 0 L 1.875 0 L 1.875 -0.625 C 4.46875 -1.539062 6.707031 -2.707031 8.59375 -4.125 C 10.476562 -5.550781 11.421875 -7.394531 11.421875 -9.65625 L 11.421875 -80.671875 C 11.421875 -82.929688 10.476562 -84.5 8.59375 -85.375 C 6.707031 -86.257812 4.46875 -86.867188 1.875 -87.203125 L 1.875 -87.828125 Z M 71.640625 -87.828125 "/></g></g></g></svg>